<svg width="36" height="36" viewBox="0 0 36 36" fill="none" xmlns="http://www.w3.org/2000/svg">
<rect width="36" height="36" rx="18" fill="#2CB2A5"/>
<path d="M22.6666 11.3333H13.3333C12.8029 11.3333 12.2942 11.5441 11.9191 11.9191C11.544 12.2942 11.3333 12.8029 11.3333 13.3333V22.6667C11.3333 23.1971 11.544 23.7058 11.9191 24.0809C12.2942 24.456 12.8029 24.6667 13.3333 24.6667H22.6666C23.1971 24.6667 23.7058 24.456 24.0809 24.0809C24.4559 23.7058 24.6666 23.1971 24.6666 22.6667V13.3333C24.6666 12.8029 24.4559 12.2942 24.0809 11.9191C23.7058 11.5441 23.1971 11.3333 22.6666 11.3333ZM23.3333 22.6667C23.3333 22.8435 23.2631 23.0131 23.1381 23.1381C23.013 23.2631 22.8435 23.3333 22.6666 23.3333H13.3333C13.1565 23.3333 12.9869 23.2631 12.8619 23.1381C12.7369 23.0131 12.6666 22.8435 12.6666 22.6667V13.3333C12.6666 13.1565 12.7369 12.987 12.8619 12.8619C12.9869 12.7369 13.1565 12.6667 13.3333 12.6667H22.6666C22.8435 12.6667 23.013 12.7369 23.1381 12.8619C23.2631 12.987 23.3333 13.1565 23.3333 13.3333V22.6667ZM21.3333 16H20V14.6667C20 14.4899 19.9297 14.3203 19.8047 14.1953C19.6797 14.0702 19.5101 14 19.3333 14H16.6666C16.4898 14 16.3203 14.0702 16.1952 14.1953C16.0702 14.3203 16 14.4899 16 14.6667V16H14.6666C14.4898 16 14.3203 16.0702 14.1952 16.1953C14.0702 16.3203 14 16.4899 14 16.6667V19.3333C14 19.5102 14.0702 19.6797 14.1952 19.8047C14.3203 19.9298 14.4898 20 14.6666 20H16V21.3333C16 21.5102 16.0702 21.6797 16.1952 21.8047C16.3203 21.9298 16.4898 22 16.6666 22H19.3333C19.5101 22 19.6797 21.9298 19.8047 21.8047C19.9297 21.6797 20 21.5102 20 21.3333V20H21.3333C21.5101 20 21.6797 19.9298 21.8047 19.8047C21.9297 19.6797 22 19.5102 22 19.3333V16.6667C22 16.4899 21.9297 16.3203 21.8047 16.1953C21.6797 16.0702 21.5101 16 21.3333 16ZM20.6666 18.6667H19.3333C19.1565 18.6667 18.9869 18.7369 18.8619 18.8619C18.7369 18.987 18.6666 19.1565 18.6666 19.3333V20.6667H17.3333V19.3333C17.3333 19.1565 17.2631 18.987 17.1381 18.8619C17.013 18.7369 16.8435 18.6667 16.6666 18.6667H15.3333V17.3333H16.6666C16.8435 17.3333 17.013 17.2631 17.1381 17.1381C17.2631 17.0131 17.3333 16.8435 17.3333 16.6667V15.3333H18.6666V16.6667C18.6666 16.8435 18.7369 17.0131 18.8619 17.1381C18.9869 17.2631 19.1565 17.3333 19.3333 17.3333H20.6666V18.6667Z" fill="white"/>
</svg>