<svg xmlns="http://www.w3.org/2000/svg" width="36" height="36" viewBox="0 0 36 36" fill="none">
<rect y="6.10352e-05" width="36" height="36" rx="18" fill="#FFD874"/>
<path d="M19.3334 18.3334H18.6667V17.6667C18.6667 17.4899 18.5965 17.3204 18.4714 17.1953C18.3464 17.0703 18.1769 17.0001 18 17.0001C17.8232 17.0001 17.6537 17.0703 17.5286 17.1953C17.4036 17.3204 17.3334 17.4899 17.3334 17.6667V18.3334H16.6667C16.4899 18.3334 16.3203 18.4036 16.1953 18.5287C16.0703 18.6537 16 18.8233 16 19.0001C16 19.1769 16.0703 19.3464 16.1953 19.4715C16.3203 19.5965 16.4899 19.6667 16.6667 19.6667H17.3334V20.3334C17.3334 20.5102 17.4036 20.6798 17.5286 20.8048C17.6537 20.9298 17.8232 21.0001 18 21.0001C18.1769 21.0001 18.3464 20.9298 18.4714 20.8048C18.5965 20.6798 18.6667 20.5102 18.6667 20.3334V19.6667H19.3334C19.5102 19.6667 19.6798 19.5965 19.8048 19.4715C19.9298 19.3464 20 19.1769 20 19.0001C20 18.8233 19.9298 18.6537 19.8048 18.5287C19.6798 18.4036 19.5102 18.3334 19.3334 18.3334ZM22.6667 13.6667H18.48L18.2667 13.0001C18.1284 12.6089 17.8719 12.2704 17.5326 12.0315C17.1934 11.7926 16.7883 11.6651 16.3734 11.6667H13.3334C12.8029 11.6667 12.2942 11.8774 11.9192 12.2525C11.5441 12.6276 11.3334 13.1363 11.3334 13.6667V22.3334C11.3334 22.8638 11.5441 23.3725 11.9192 23.7476C12.2942 24.1227 12.8029 24.3334 13.3334 24.3334H22.6667C23.1971 24.3334 23.7058 24.1227 24.0809 23.7476C24.456 23.3725 24.6667 22.8638 24.6667 22.3334V15.6667C24.6667 15.1363 24.456 14.6276 24.0809 14.2525C23.7058 13.8774 23.1971 13.6667 22.6667 13.6667ZM23.3334 22.3334C23.3334 22.5102 23.2631 22.6798 23.1381 22.8048C23.0131 22.9298 22.8435 23.0001 22.6667 23.0001H13.3334C13.1566 23.0001 12.987 22.9298 12.862 22.8048C12.7369 22.6798 12.6667 22.5102 12.6667 22.3334V13.6667C12.6667 13.4899 12.7369 13.3204 12.862 13.1953C12.987 13.0703 13.1566 13.0001 13.3334 13.0001H16.3734C16.5131 12.9997 16.6495 13.0433 16.7631 13.1246C16.8768 13.206 16.962 13.321 17.0067 13.4534L17.3667 14.5467C17.4114 14.6791 17.4966 14.7942 17.6103 14.8755C17.7239 14.9569 17.8603 15.0004 18 15.0001H22.6667C22.8435 15.0001 23.0131 15.0703 23.1381 15.1953C23.2631 15.3204 23.3334 15.4899 23.3334 15.6667V22.3334Z" fill="white"/>
</svg>