<svg width="24" height="24" viewBox="0 0 24 24" xmlns="http://www.w3.org/2000/svg">
<path fill-rule="evenodd" clip-rule="evenodd" d="M5.59319 7.43022L6.28207 18.7263V18.7263C6.3355 19.5905 7.06695 20.2857 7.97941 20.2857H15.647C16.54 20.2857 17.2642 19.6192 17.3425 18.7764V18.7764L18.3806 7.42855C16.4812 7.30707 13.95 7.17372 12 7.17372C10.041 7.17372 7.49544 7.3083 5.59319 7.43022ZM20.0913 7.54554C20.2763 7.55902 20.4392 7.57117 20.5765 7.58157C20.7354 7.5936 20.8599 7.60329 20.9446 7.60995L21.073 7.62016C21.5449 7.65847 21.9588 7.30707 21.9971 6.83524C22.0355 6.3634 21.684 5.94984 21.2122 5.91153L21.0791 5.90094C20.9928 5.89415 20.8666 5.88434 20.7059 5.87217C20.3846 5.84784 19.9254 5.81406 19.3728 5.77622C17.4392 5.6438 14.3326 5.45943 12 5.45943C9.66741 5.45943 6.56077 5.6438 4.62718 5.77622C4.07463 5.81406 3.61541 5.84784 3.29409 5.87217C3.13341 5.88434 3.00717 5.89415 2.92094 5.90094L2.78846 5.91147C2.31663 5.94979 1.96454 6.3634 2.00285 6.83524C2.04117 7.30707 2.45472 7.6585 2.92655 7.62019M2.92655 7.62019L3.05536 7.60995C3.14005 7.60329 3.26463 7.5936 3.42354 7.58157C3.55443 7.57166 3.70857 7.56015 3.88288 7.54742L4.57101 18.8313C4.68149 20.6229 6.18457 22 7.97941 22H15.647C17.4018 22 18.8878 20.6823 19.0495 18.9336L20.0913 7.54554" />
<path fill-rule="evenodd" clip-rule="evenodd" d="M10.4 3.71429C10.2422 3.71429 10.1143 3.84221 10.1143 4V5.8224C10.1143 6.29579 9.73054 6.67954 9.25715 6.67954C8.78377 6.67954 8.40001 6.29579 8.40001 5.8224V4C8.40001 2.89543 9.29544 2 10.4 2H13.6C14.7046 2 15.6 2.89543 15.6 4V5.8224C15.6 6.29579 15.2162 6.67954 14.7428 6.67954C14.2695 6.67954 13.8857 6.29579 13.8857 5.8224V4C13.8857 3.84221 13.7578 3.71429 13.6 3.71429H10.4Z" />
<path fill-rule="evenodd" clip-rule="evenodd" d="M7.48579 5.82242C7.48579 5.34903 7.86954 4.96528 8.34293 4.96528L10.1715 4.96528C10.6449 4.96528 11.0286 5.34903 11.0286 5.82242C11.0286 6.29581 10.6449 6.67956 10.1715 6.67956H8.34293C7.86954 6.67956 7.48579 6.29581 7.48579 5.82242Z" />
<path fill-rule="evenodd" clip-rule="evenodd" d="M12.9714 5.82242C12.9714 5.34903 13.3551 4.96528 13.8285 4.96528H15.6571C16.1305 4.96528 16.5142 5.34903 16.5142 5.82242C16.5142 6.29581 16.1305 6.67956 15.6571 6.67956H13.8285C13.3551 6.67956 12.9714 6.29581 12.9714 5.82242Z" />
<path fill-rule="evenodd" clip-rule="evenodd" d="M12 9.90738C12.4734 9.90738 12.8571 10.2911 12.8571 10.7645V16.695C12.8571 17.1684 12.4734 17.5522 12 17.5522C11.5266 17.5522 11.1429 17.1684 11.1429 16.695V10.7645C11.1429 10.2911 11.5266 9.90738 12 9.90738Z" />
<path fill-rule="evenodd" clip-rule="evenodd" d="M8.34293 10.8958C8.81631 10.8958 9.20007 11.2795 9.20007 11.7529V15.7066C9.20007 16.18 8.81631 16.5637 8.34293 16.5637C7.86954 16.5637 7.48579 16.18 7.48579 15.7066V11.7529C7.48579 11.2795 7.86954 10.8958 8.34293 10.8958Z" />
<path fill-rule="evenodd" clip-rule="evenodd" d="M15.6571 10.8958C16.1305 10.8958 16.5142 11.2795 16.5142 11.7529V15.7066C16.5142 16.18 16.1305 16.5637 15.6571 16.5637C15.1837 16.5637 14.7999 16.18 14.7999 15.7066V11.7529C14.7999 11.2795 15.1837 10.8958 15.6571 10.8958Z" />
</svg>
