<svg width="16" height="16" viewBox="0 0 16 16" fill="none" xmlns="http://www.w3.org/2000/svg">
    <path d="M13.9997 9.33325C13.8229 9.33325 13.6533 9.40349 13.5283 9.52851C13.4032 9.65354 13.333 9.82311 13.333 9.99992V12.6666C13.333 12.8434 13.2628 13.013 13.1377 13.138C13.0127 13.263 12.8432 13.3333 12.6663 13.3333H3.33301C3.1562 13.3333 2.98663 13.263 2.8616 13.138C2.73658 13.013 2.66634 12.8434 2.66634 12.6666V9.99992C2.66634 9.82311 2.5961 9.65354 2.47108 9.52851C2.34605 9.40349 2.17649 9.33325 1.99967 9.33325C1.82286 9.33325 1.65329 9.40349 1.52827 9.52851C1.40325 9.65354 1.33301 9.82311 1.33301 9.99992V12.6666C1.33301 13.197 1.54372 13.7057 1.91879 14.0808C2.29387 14.4559 2.80257 14.6666 3.33301 14.6666H12.6663C13.1968 14.6666 13.7055 14.4559 14.0806 14.0808C14.4556 13.7057 14.6663 13.197 14.6663 12.6666V9.99992C14.6663 9.82311 14.5961 9.65354 14.4711 9.52851C14.3461 9.40349 14.1765 9.33325 13.9997 9.33325ZM7.52634 10.4733C7.58974 10.5339 7.66451 10.5815 7.74634 10.6133C7.82614 10.6485 7.91243 10.6667 7.99967 10.6667C8.08692 10.6667 8.17321 10.6485 8.25301 10.6133C8.33484 10.5815 8.40961 10.5339 8.47301 10.4733L11.1397 7.80659C11.2652 7.68105 11.3357 7.51079 11.3357 7.33325C11.3357 7.15572 11.2652 6.98545 11.1397 6.85992C11.0141 6.73438 10.8439 6.66386 10.6663 6.66386C10.4888 6.66386 10.3185 6.73438 10.193 6.85992L8.66634 8.39325V1.99992C8.66634 1.82311 8.5961 1.65354 8.47108 1.52851C8.34605 1.40349 8.17649 1.33325 7.99967 1.33325C7.82286 1.33325 7.65329 1.40349 7.52827 1.52851C7.40325 1.65354 7.33301 1.82311 7.33301 1.99992V8.39325L5.80634 6.85992C5.74418 6.79776 5.67039 6.74845 5.58917 6.71481C5.50796 6.68117 5.42091 6.66386 5.33301 6.66386C5.2451 6.66386 5.15806 6.68117 5.07684 6.71481C4.99563 6.74845 4.92183 6.79776 4.85967 6.85992C4.79752 6.92208 4.74821 6.99587 4.71457 7.07709C4.68093 7.1583 4.66361 7.24535 4.66361 7.33325C4.66361 7.42116 4.68093 7.5082 4.71457 7.58942C4.74821 7.67063 4.79752 7.74443 4.85967 7.80659L7.52634 10.4733Z" fill="#999999"/>
</svg>
