<svg width="36" height="36" viewBox="0 0 36 36" fill="none" xmlns="http://www.w3.org/2000/svg">
<rect width="36" height="36" rx="18" fill="#F06866"/>
    <path d="M22.2667 13.3778C21.8137 12.9258 21.5412 12.3112 20.9013 12.3112C20.2614 12.3112 19.6477 12.565 19.1947 13.017L18 14.2116" stroke="white" stroke-width="1.5" stroke-miterlimit="10" stroke-linecap="round" stroke-linejoin="round"/>
    <path d="M22.0416 17.4784L23.344 16.176C24.0204 15.4957 24.4001 14.5754 24.4001 13.616C24.4001 12.6567 24.0204 11.7364 23.344 11.056C22.6637 10.3797 21.7434 10 20.784 10C19.8247 10 18.9044 10.3797 18.224 11.056L11.056 18.224C10.3797 18.9044 10 19.8247 10 20.784C10 21.7434 10.3797 22.6637 11.056 23.344C11.7364 24.0204 12.6567 24.4001 13.616 24.4001C14.5754 24.4001 15.4957 24.0204 16.176 23.344L17.4667 22.0534M14.64 14.64L18.7166 18.7166" stroke="white" stroke-width="1.5" stroke-miterlimit="10" stroke-linecap="round" stroke-linejoin="round"/>
    <path d="M21.7333 26C24.0898 26 26 24.0898 26 21.7334C26 19.377 24.0898 17.4667 21.7333 17.4667C19.3769 17.4667 17.4667 19.377 17.4667 21.7334C17.4667 24.0898 19.3769 26 21.7333 26Z" stroke="white" stroke-width="1.5" stroke-linecap="round" stroke-linejoin="round"/>
    <path d="M20.1334 21.7315L21.4656 23.0648L23.5979 20.6648" stroke="white" stroke-width="1.5" stroke-linecap="round" stroke-linejoin="round"/>
</svg>