<svg width="12" height="13" viewBox="0 0 12 14" fill="none" xmlns="http://www.w3.org/2000/svg">
<path d="M11.9467 9.41203C11.9129 9.33124 11.8656 9.25683 11.8067 9.19203L9.80667 7.19203C9.68113 7.0665 9.51087 6.99597 9.33333 6.99597C9.1558 6.99597 8.98554 7.0665 8.86 7.19203C8.73446 7.31757 8.66394 7.48783 8.66394 7.66536C8.66394 7.8429 8.73446 8.01316 8.86 8.1387L9.72667 8.9987H6C5.82319 8.9987 5.65362 9.06894 5.5286 9.19396C5.40357 9.31898 5.33333 9.48855 5.33333 9.66537C5.33333 9.84218 5.40357 10.0117 5.5286 10.1368C5.65362 10.2618 5.82319 10.332 6 10.332H9.72667L8.86 11.192C8.79751 11.254 8.74792 11.3277 8.71407 11.409C8.68023 11.4902 8.6628 11.5774 8.6628 11.6654C8.6628 11.7534 8.68023 11.8405 8.71407 11.9217C8.74792 12.003 8.79751 12.0767 8.86 12.1387C8.92198 12.2012 8.99571 12.2508 9.07695 12.2846C9.15819 12.3185 9.24533 12.3359 9.33333 12.3359C9.42134 12.3359 9.50848 12.3185 9.58972 12.2846C9.67096 12.2508 9.74469 12.2012 9.80667 12.1387L11.8067 10.1387C11.8684 10.0761 11.9161 10.0011 11.9467 9.9187C12.0133 9.75639 12.0133 9.57434 11.9467 9.41203ZM7.33333 12.332H2C1.82319 12.332 1.65362 12.2618 1.5286 12.1368C1.40357 12.0117 1.33333 11.8422 1.33333 11.6654V2.33203C1.33333 2.15522 1.40357 1.98565 1.5286 1.86063C1.65362 1.7356 1.82319 1.66536 2 1.66536H5.33333V3.66536C5.33333 4.1958 5.54405 4.70451 5.91912 5.07958C6.29419 5.45465 6.8029 5.66536 7.33333 5.66536H10C10.1316 5.66471 10.2601 5.62511 10.3692 5.55155C10.4784 5.478 10.5633 5.37378 10.6133 5.25203C10.6644 5.13062 10.6783 4.99682 10.6534 4.86749C10.6285 4.73816 10.5658 4.61911 10.4733 4.52536L6.47333 0.525365C6.41822 0.473509 6.35521 0.430752 6.28667 0.398698H6.22667L6.04 0.332031H2C1.46957 0.332031 0.960859 0.542745 0.585787 0.917818C0.210714 1.29289 0 1.8016 0 2.33203V11.6654C0 12.1958 0.210714 12.7045 0.585787 13.0796C0.960859 13.4547 1.46957 13.6654 2 13.6654H7.33333C7.51014 13.6654 7.67971 13.5951 7.80474 13.4701C7.92976 13.3451 8 13.1755 8 12.9987C8 12.8219 7.92976 12.6523 7.80474 12.5273C7.67971 12.4023 7.51014 12.332 7.33333 12.332ZM6.66667 2.60536L8.39333 4.33203H7.33333C7.15652 4.33203 6.98695 4.26179 6.86193 4.13677C6.73691 4.01174 6.66667 3.84218 6.66667 3.66536V2.60536Z" fill="white"/>
</svg>
