<svg width="36" height="36" viewBox="0 0 36 36" fill="none" xmlns="http://www.w3.org/2000/svg">
    <rect width="36" height="36" rx="18" fill="#6576FF"/>
    <path d="M13.5223 20.3688C13.2488 19.9204 13.2673 19.3902 13.2488 18.9208C13.2158 18.0811 13.3904 17.2462 13.7571 16.4902C14.1239 15.7341 14.6158 15.1058 14.7404 14.9812L16.236 16.1029C15.8621 16.4768 15.6551 16.8148 15.4211 17.2972C15.1871 17.7797 15.0757 18.3124 15.0968 18.8481C15.1178 19.3839 15.2707 19.9062 15.5418 20.3688C15.813 20.8314 16.194 21.22 16.6512 21.5001C17.1083 21.7803 17.6275 21.9434 18.1628 21.9749C18.698 22.0065 19.2328 21.9056 19.7198 21.6811C20.2067 21.4566 20.6307 21.1155 20.9544 20.688C21.278 20.2605 21.3866 19.9975 21.4705 19.4679L23.4017 19.5195C23.2702 20.3494 22.9361 21.1342 22.4289 21.8042C21.9218 22.4742 21.2572 23.0088 20.494 23.3606C19.7309 23.7124 18.8928 23.8706 18.0539 23.8211C17.2151 23.7717 16.4013 23.5161 15.6848 23.077C15.4785 22.9506 15.2821 22.81 15.0968 22.6567" stroke="white"/>
    <circle cx="14.2418" cy="21.5866" r="0.995567" stroke="white"/>
    <rect x="13.6523" y="11.6978" width="6.47784" height="1.63775" rx="0.5" transform="rotate(35.7158 13.6523 11.6978)" stroke="white"/>
    <line x1="19.9749" y1="19.0925" x2="24.7108" y2="19.0925" stroke="white"/>
    <mask id="path-6-inside-1_11126_112350" fill="white">
        <path d="M11.5 25C11.5 24.4606 11.9373 24.0233 12.4767 24.0233H23.5465C24.086 24.0233 24.5233 24.4606 24.5233 25H11.5Z"/>
    </mask>
    <path d="M24.5233 25V26H25.5233V25H24.5233ZM11.5 25H10.5V26H11.5V25ZM12.4767 25.0233H23.5465V23.0233H12.4767V25.0233ZM24.5233 24H11.5V26H24.5233V24ZM23.5465 25.0233C23.5451 25.0233 23.5413 25.0228 23.5372 25.021C23.5336 25.0195 23.5314 25.0178 23.5301 25.0164C23.5287 25.0151 23.527 25.0129 23.5255 25.0094C23.5237 25.0052 23.5233 25.0014 23.5233 25H25.5233C25.5233 23.9083 24.6382 23.0233 23.5465 23.0233V25.0233ZM12.4767 23.0233C11.385 23.0233 10.5 23.9083 10.5 25H12.5C12.5 25.0014 12.4995 25.0052 12.4978 25.0094C12.4963 25.0129 12.4946 25.0151 12.4932 25.0164C12.4918 25.0178 12.4896 25.0195 12.4861 25.021C12.4819 25.0228 12.4781 25.0233 12.4767 25.0233V23.0233Z" fill="white" mask="url(#path-6-inside-1_11126_112350)"/>
    <path d="M13.4535 22.0698L13.4535 24.0233" stroke="white"/>
</svg>