<svg width="36" height="36" viewBox="0 0 36 36" fill="none" xmlns="http://www.w3.org/2000/svg">
<rect width="36" height="36" rx="18" fill="#1740ED"/>
    <path d="M23.3333 18.7867V17.3333C23.3333 15.9188 22.7714 14.5623 21.7712 13.5621C20.771 12.5619 19.4145 12 18 12C16.5855 12 15.2289 12.5619 14.2287 13.5621C13.2285 14.5623 12.6666 15.9188 12.6666 17.3333V18.7867C12.2776 18.9242 11.9406 19.1787 11.7019 19.5153C11.4632 19.8519 11.3345 20.254 11.3333 20.6667V22C11.3333 22.5304 11.544 23.0391 11.9191 23.4142C12.2942 23.7893 12.8029 24 13.3333 24H15.3333C15.5101 24 15.6797 23.9298 15.8047 23.8047C15.9297 23.6797 16 23.5101 16 23.3333V19.3333C16 19.1565 15.9297 18.987 15.8047 18.8619C15.6797 18.7369 15.5101 18.6667 15.3333 18.6667H14V17.3333C14 16.2725 14.4214 15.2551 15.1716 14.5049C15.9217 13.7548 16.9391 13.3333 18 13.3333C19.0608 13.3333 20.0783 13.7548 20.8284 14.5049C21.5786 15.2551 22 16.2725 22 17.3333V18.6667H20.6666C20.4898 18.6667 20.3203 18.7369 20.1952 18.8619C20.0702 18.987 20 19.1565 20 19.3333V23.3333C20 23.5101 20.0702 23.6797 20.1952 23.8047C20.3203 23.9298 20.4898 24 20.6666 24H22.6666C23.1971 24 23.7058 23.7893 24.0809 23.4142C24.4559 23.0391 24.6666 22.5304 24.6666 22V20.6667C24.6655 20.254 24.5367 19.8519 24.298 19.5153C24.0593 19.1787 23.7223 18.9242 23.3333 18.7867ZM14.6666 20V22.6667H13.3333C13.1565 22.6667 12.9869 22.5964 12.8619 22.4714C12.7369 22.3464 12.6666 22.1768 12.6666 22V20.6667C12.6666 20.4899 12.7369 20.3203 12.8619 20.1953C12.9869 20.0702 13.1565 20 13.3333 20H14.6666ZM23.3333 22C23.3333 22.1768 23.2631 22.3464 23.1381 22.4714C23.013 22.5964 22.8435 22.6667 22.6666 22.6667H21.3333V20H22.6666C22.8435 20 23.013 20.0702 23.1381 20.1953C23.2631 20.3203 23.3333 20.4899 23.3333 20.6667V22Z" fill="white"/>
</svg>