<svg width="36" height="36" viewBox="0 0 36 36" fill="none" xmlns="http://www.w3.org/2000/svg">
<rect width="36" height="36" rx="18" fill="#F6A447"/>
<path d="M22 20V13.3333C22 12.8029 21.7893 12.2942 21.4142 11.9191C21.0391 11.544 20.5304 11.3333 20 11.3333H13.3333C12.8029 11.3333 12.2942 11.544 11.9191 11.9191C11.544 12.2942 11.3333 12.8029 11.3333 13.3333V20C11.3333 20.5304 11.544 21.0391 11.9191 21.4142C12.2942 21.7893 12.8029 22 13.3333 22H20C20.5304 22 21.0391 21.7893 21.4142 21.4142C21.7893 21.0391 22 20.5304 22 20ZM12.6666 13.3333C12.6666 13.1565 12.7369 12.987 12.8619 12.8619C12.9869 12.7369 13.1565 12.6667 13.3333 12.6667H20C20.1768 12.6667 20.3464 12.7369 20.4714 12.8619C20.5964 12.987 20.6666 13.1565 20.6666 13.3333V16.24L19.9466 15.5133C19.6266 15.1933 19.1926 15.0134 18.74 15.0133C18.2877 15.0149 17.8541 15.1945 17.5333 15.5133L16.9266 16.12L16.3866 15.58C16.0213 15.2205 15.5292 15.019 15.0166 15.019C14.5041 15.019 14.012 15.2205 13.6466 15.58L12.6666 16.5667V13.3333ZM12.7466 20.3C12.6952 20.2083 12.6677 20.1051 12.6666 20V18.4467L14.5866 16.5267C14.643 16.47 14.71 16.4251 14.7838 16.3944C14.8576 16.3637 14.9367 16.348 15.0166 16.348C15.0966 16.348 15.1757 16.3637 15.2495 16.3944C15.3233 16.4251 15.3903 16.47 15.4466 16.5267L16 17.0667L12.7466 20.3ZM18.48 16.46C18.5129 16.4238 18.5531 16.3951 18.5979 16.3755C18.6427 16.356 18.6911 16.3462 18.74 16.3467C18.7889 16.3462 18.8373 16.356 18.8821 16.3755C18.9269 16.3951 18.9671 16.4238 19 16.46L20.6666 18.12V20C20.6666 20.1768 20.5964 20.3464 20.4714 20.4714C20.3464 20.5964 20.1768 20.6667 20 20.6667H14.2666L18.48 16.46ZM24 14C23.8232 14 23.6536 14.0702 23.5286 14.1953C23.4036 14.3203 23.3333 14.4899 23.3333 14.6667V21.3333C23.3333 21.8638 23.1226 22.3725 22.7475 22.7476C22.3725 23.1226 21.8637 23.3333 21.3333 23.3333H14.6666C14.4898 23.3333 14.3203 23.4036 14.1952 23.5286C14.0702 23.6536 14 23.8232 14 24C14 24.1768 14.0702 24.3464 14.1952 24.4714C14.3203 24.5964 14.4898 24.6667 14.6666 24.6667H21.3333C22.2174 24.6667 23.0652 24.3155 23.6903 23.6904C24.3155 23.0652 24.6666 22.2174 24.6666 21.3333V14.6667C24.6666 14.4899 24.5964 14.3203 24.4714 14.1953C24.3464 14.0702 24.1768 14 24 14Z" fill="white"/>
</svg>