<svg width="36" height="36" viewBox="0 0 36 36" fill="none" xmlns="http://www.w3.org/2000/svg">
    <rect width="36" height="36" rx="18" fill="#9665FF"/>
    <path d="M23.6596 15.0131C23.6558 14.9956 23.6558 14.9774 23.6596 14.9598C23.6563 14.9444 23.6563 14.9285 23.6596 14.9131V14.8531L23.6196 14.7531C23.6033 14.7259 23.5831 14.7011 23.5596 14.6798L23.4996 14.6265H23.4662L20.8396 12.9665L18.3596 11.4331C18.3022 11.3876 18.2365 11.3537 18.1662 11.3331H18.1129C18.0533 11.3232 17.9925 11.3232 17.9329 11.3331H17.8662C17.7888 11.3503 17.7145 11.3795 17.6462 11.4198L12.6662 14.5198L12.6062 14.5665L12.5462 14.6198L12.4796 14.6665L12.4462 14.7065L12.4062 14.8065V14.8665V14.9065C12.3997 14.9507 12.3997 14.9956 12.4062 15.0398V20.8598C12.406 20.9731 12.4346 21.0846 12.4895 21.1837C12.5443 21.2829 12.6235 21.3664 12.7196 21.4265L17.7196 24.5198L17.8196 24.5598H17.8729C17.9857 24.5956 18.1068 24.5956 18.2196 24.5598H18.2729L18.3729 24.5198L23.3329 21.4731C23.429 21.4131 23.5082 21.3296 23.563 21.2304C23.6178 21.1313 23.6465 21.0198 23.6462 20.9065V15.0865C23.6462 15.0865 23.6596 15.0398 23.6596 15.0131ZM17.9996 12.7798L19.1862 13.5131L15.4596 15.8198L14.2662 15.0865L17.9996 12.7798ZM17.3329 22.7798L13.6662 20.5398V16.2798L17.3329 18.5465V22.7798ZM17.9996 17.3731L16.7262 16.6065L20.4529 14.2931L21.7329 15.0865L17.9996 17.3731ZM22.3329 20.5198L18.6662 22.7998V18.5465L22.3329 16.2798V20.5198Z" fill="white"/>
</svg>
